<?xml version="1.0" standalone="no"?>
<!DOCTYPE svg PUBLIC "-//W3C//DTD SVG 20010904//EN"
 "http://www.w3.org/TR/2001/REC-SVG-20010904/DTD/svg10.dtd">
<svg version="1.0" xmlns="http://www.w3.org/2000/svg"
 width="500.000000pt" height="500.000000pt" viewBox="0 0 500.000000 500.000000"
 preserveAspectRatio="xMidYMid meet">
<metadata>
Created by potrace 1.14, written by Peter Selinger 2001-2017
</metadata>
<g transform="translate(0.000000,500.000000) scale(0.100000,-0.100000)"
fill="#000000" stroke="none">
<path d="M2331 3687 c-132 -122 -134 -124 -167 -208 -78 -200 -364 -917 -379
-953 -16 -37 -12 -34 117 70 73 59 135 109 136 110 2 1 58 137 124 301 66 164
123 301 127 306 4 4 38 -97 76 -224 l69 -232 86 7 c47 3 108 8 135 12 l50 5
44 -82 44 -82 -24 -18 c-13 -10 -47 -31 -76 -46 -63 -33 -63 -33 -63 -249 l0
-164 155 0 154 0 -14 48 c-8 26 -112 379 -232 785 -119 405 -220 737 -223 737
-3 0 -65 -56 -139 -123z"/>
<path d="M2660 2779 c-25 -4 -106 -11 -180 -15 -106 -5 -149 -12 -200 -31 -59
-22 -190 -98 -190 -110 0 -6 121 4 178 14 l32 5 0 -201 0 -201 115 0 115 0 0
88 c0 49 3 150 7 225 6 127 8 137 27 143 12 3 51 24 89 46 62 37 78 50 60 47
-5 -1 -28 -5 -53 -10z"/>
<path d="M3810 2779 c-30 -6 -116 -13 -190 -17 -124 -7 -141 -11 -208 -42 -41
-19 -95 -49 -120 -68 l-47 -34 75 7 c41 3 92 9 113 12 l37 6 0 -202 0 -201
108 0 109 0 6 158 c4 86 7 186 8 222 l0 65 67 33 c66 32 127 72 107 71 -5 -1
-35 -5 -65 -10z"/>
<path d="M2080 2513 c-74 -8 -314 -43 -318 -47 -4 -5 -92 -216 -92 -222 0 -2
36 -4 79 -4 l80 0 23 43 23 42 163 9 162 8 0 89 0 89 -42 -2 c-24 0 -59 -3
-78 -5z"/>
<path d="M1725 2164 c-6 -2 -9 -43 -7 -103 2 -60 -1 -108 -8 -120 -16 -30 -4
-26 17 6 13 19 19 55 23 125 5 95 2 104 -25 92z"/>
<path d="M2040 2168 c-1 -2 -2 -49 -3 -106 l-2 -102 25 0 c14 0 20 4 15 8 -6
4 -8 44 -5 105 5 88 3 97 -12 97 -10 0 -18 -1 -18 -2z"/>
<path d="M2150 2160 c-12 -8 -12 -10 -1 -10 11 0 13 -18 9 -95 -5 -97 -2 -107
32 -85 10 6 11 10 3 10 -9 0 -13 24 -13 84 0 90 10 107 50 86 28 -15 34 -47
14 -78 l-17 -27 27 24 c29 28 34 62 10 85 -17 18 -90 21 -114 6z"/>
<path d="M2581 2161 c-8 -5 -9 -10 -3 -12 8 -3 9 -33 4 -96 -7 -84 -6 -93 10
-93 9 0 20 5 23 10 3 6 3 10 -2 10 -4 0 -7 38 -5 85 3 81 5 85 27 85 12 0 28
-7 35 -15 17 -20 5 -62 -20 -70 -20 -6 -19 -9 16 -48 46 -51 60 -61 82 -52 15
6 13 8 -8 20 -14 7 -36 27 -48 45 -22 29 -22 33 -8 49 22 24 20 68 -3 81 -24
12 -81 13 -100 1z"/>
<path d="M3194 2151 c-39 -24 -58 -70 -51 -122 10 -72 51 -90 101 -44 49 46
60 114 25 159 -24 31 -34 32 -75 7z m43 -9 c34 -21 35 -118 3 -147 -42 -38
-87 13 -75 86 10 56 39 82 72 61z"/>
<path d="M1891 2147 c-6 -8 -24 -47 -41 -87 -17 -40 -35 -79 -41 -87 -9 -10
-7 -13 10 -13 12 0 20 4 16 9 -9 16 16 59 39 65 37 10 43 7 55 -34 6 -22 18
-40 26 -40 16 0 29 17 16 22 -5 1 -20 42 -35 91 -15 48 -28 87 -30 87 -2 0 -9
-6 -15 -13z m18 -84 c1 -7 -10 -13 -24 -13 l-26 0 17 32 c16 30 18 31 25 13 4
-11 8 -26 8 -32z"/>
<path d="M2330 2077 c3 -50 11 -91 19 -101 15 -17 67 -21 91 -6 10 6 6 9 -18
8 -54 -2 -64 15 -60 104 3 72 2 78 -17 78 -19 0 -20 -5 -15 -83z"/>
<path d="M2468 2060 c3 -86 6 -100 20 -100 15 0 17 12 14 100 -3 86 -6 100
-20 100 -15 0 -17 -12 -14 -100z"/>
<path d="M2905 2100 c-4 -6 5 -10 19 -10 31 0 33 -11 6 -35 -20 -19 -20 -19
10 -31 28 -12 35 -27 30 -64 -3 -26 -33 -42 -67 -35 -20 4 -33 2 -33 -5 0 -5
16 -10 36 -10 41 0 94 44 94 79 0 23 -25 51 -47 51 -12 0 -9 8 11 35 l27 35
-40 0 c-22 0 -43 -4 -46 -10z"/>
<path d="M3050 1970 c0 -5 6 -10 14 -10 8 0 18 5 21 10 3 6 -3 10 -14 10 -12
0 -21 -4 -21 -10z"/>
<path d="M1476 1813 c-19 -38 -56 -99 -84 -138 -42 -60 -60 -76 -131 -115
l-82 -45 148 -3 c163 -3 239 9 373 58 80 29 232 105 190 95 -44 -11 -357 -18
-362 -9 -3 5 21 54 53 108 32 55 59 103 59 108 0 4 -29 8 -65 8 l-65 0 -34
-67z"/>
<path d="M2223 1855 c-28 -25 -28 -25 -3 -17 14 5 37 12 53 16 l27 6 0 -312
c-1 -417 -16 -500 -110 -602 l-43 -46 114 -2 c190 -4 237 1 293 29 70 35 207
136 176 129 -67 -15 -163 -26 -238 -26 l-83 0 29 43 c38 55 60 114 66 174 3
26 8 180 11 341 l7 292 -136 0 c-130 0 -136 -1 -163 -25z"/>
<path d="M3470 1553 c0 -472 -16 -565 -103 -622 -20 -13 -36 -26 -34 -28 2 -1
75 -4 163 -5 l159 -1 60 30 c79 41 209 136 175 129 -85 -18 -154 -26 -227 -26
-82 0 -97 6 -69 29 7 6 26 39 41 74 26 57 29 76 36 237 4 96 8 250 8 343 l1
167 -105 0 -105 0 0 -327z"/>
<path d="M2755 1798 c23 -71 65 -218 65 -229 0 -8 -15 -24 -32 -34 l-33 -20
150 -3 c140 -3 156 -1 230 23 127 42 229 96 233 123 3 21 1 22 -90 23 -51 0
-113 6 -138 12 -43 12 -45 14 -59 65 l-14 52 -158 0 c-122 0 -157 -3 -154 -12z"/>
</g>
</svg>
