<?xml version="1.0" encoding="utf-8"?>
<!-- Generator: Adobe Illustrator 26.1.0, SVG Export Plug-In . SVG Version: 6.00 Build 0)  -->
<svg version="1.1" id="Layer_1" xmlns="http://www.w3.org/2000/svg" xmlns:xlink="http://www.w3.org/1999/xlink" x="0px" y="0px"
	 viewBox="0 0 182 471" style="enable-background:new 0 0 182 471;" xml:space="preserve">
<style type="text/css">
	.st0{fill:url(#SVGID_1_);}
	.st1{fill-opacity:0.5;}
	.st2{fill:none;stroke:#FFFFFF;stroke-width:2;stroke-linejoin:bevel;}
	.st3{fill:url(#SVGID_00000023966117713052338950000009628263395352635327_);stroke:#FFFFFF;stroke-width:2;stroke-linejoin:bevel;}
	.st4{fill:none;stroke:#FFFFFF;stroke-width:2;}
	.st5{clip-path:url(#SVGID_00000116195261294264065860000007194246756823771822_);}
	.st6{fill:none;stroke:#FFFFFF;stroke-width:3;stroke-linejoin:bevel;stroke-opacity:2.000000e-02;}
	.st7{fill:none;stroke:#FFFFFF;stroke-width:3;stroke-linejoin:bevel;stroke-opacity:0.15;}
	.st8{fill:#FFFFFF;}
	.st9{font-family:'Calibri-Bold';}
	.st10{font-size:72px;}
	.st11{font-size:24px;}
</style>
<linearGradient id="SVGID_1_" gradientUnits="userSpaceOnUse" x1="43.2114" y1="219.0304" x2="216.2244" y2="249.103" gradientTransform="matrix(1 0 0 -1 0 472)">
	<stop  offset="0" style="stop-color:#FF2CFB"/>
	<stop  offset="1" style="stop-color:#F09343"/>
</linearGradient>
<path class="st0" d="M172.7,19.1l8.3,7.4v413.9L9.3,469.9L1,462.6l9-406L172.7,19.1z"/>
<path class="st1" d="M172.7,19.1l8.3,7.4v413.9L9.3,469.9L1,462.6l9-406L172.7,19.1z"/>
<g>
	<path class="st2" d="M172.7,19.1l8.3,7.4v413.9L9.3,469.9L1,462.6l9-406L172.7,19.1z"/>
	
		<linearGradient id="SVGID_00000140703209261451677020000004467827541882998682_" gradientUnits="userSpaceOnUse" x1="34.9864" y1="222.572" x2="207.9994" y2="252.6446" gradientTransform="matrix(1 0 0 -1 0 472)">
		<stop  offset="0" style="stop-color:#FF2CFB"/>
		<stop  offset="1" style="stop-color:#F09343"/>
	</linearGradient>
	
		<path style="fill:url(#SVGID_00000140703209261451677020000004467827541882998682_);stroke:#FFFFFF;stroke-width:2;stroke-linejoin:bevel;" d="
		M1,461.8V48.6l171-29.4v413.2L1,461.8z"/>
	<path class="st4" d="M171.5,432l9,8"/>
	<g>
		<defs>
			<rect id="SVGID_00000135674628269905847170000002024252933645638021_" width="173" height="460.7"/>
		</defs>
		<clipPath id="SVGID_00000041290982308745101130000002853516316029019297_">
			<use xlink:href="#SVGID_00000135674628269905847170000002024252933645638021_"  style="overflow:visible;"/>
		</clipPath>
		<g style="clip-path:url(#SVGID_00000041290982308745101130000002853516316029019297_);">
			<path class="st6" d="M0,48L281,0"/>
			<path class="st7" d="M0,51L281,3"/>
			<path class="st6" d="M0,54L281,6"/>
			<path class="st7" d="M0,57L281,9"/>
			<path class="st6" d="M0,60.1l281-48"/>
			<path class="st7" d="M0,63.1l281-48"/>
			<path class="st6" d="M0,66.1l281-48"/>
			<path class="st7" d="M0,69.1l281-48"/>
			<path class="st6" d="M0,72.1l281-48"/>
			<path class="st7" d="M0,75.1l281-48"/>
			<path class="st6" d="M0,78.1l281-48"/>
			<path class="st7" d="M0,81.1l281-48"/>
			<path class="st6" d="M0,84.2l281-48"/>
			<path class="st7" d="M0,87.2l281-48"/>
			<path class="st6" d="M0,90.2l281-48"/>
			<path class="st7" d="M0,93.2l281-48"/>
			<path class="st6" d="M0,96.2l281-48"/>
			<path class="st7" d="M0,99.2l281-48"/>
			<path class="st6" d="M0,102.2l281-48"/>
			<path class="st7" d="M0,105.2l281-48"/>
			<path class="st6" d="M0,108.3l281-48"/>
			<path class="st7" d="M0,111.3l281-48"/>
			<path class="st6" d="M0,114.3l281-48"/>
			<path class="st7" d="M0,117.3l281-48"/>
			<path class="st6" d="M0,120.3l281-48"/>
			<path class="st7" d="M0,123.3l281-48"/>
			<path class="st6" d="M0,126.3l281-48"/>
			<path class="st7" d="M0,129.3l281-48"/>
			<path class="st6" d="M0,132.4l281-48"/>
			<path class="st7" d="M0,135.4l281-48"/>
			<path class="st6" d="M0,138.4l281-48"/>
			<path class="st7" d="M0,141.4l281-48"/>
			<path class="st6" d="M0,144.4l281-48"/>
			<path class="st7" d="M0,147.4l281-48"/>
			<path class="st6" d="M0,150.4l281-48"/>
			<path class="st7" d="M0,153.4l281-48"/>
			<path class="st6" d="M0,156.5l281-48"/>
			<path class="st7" d="M0,159.5l281-48"/>
			<path class="st6" d="M0,162.5l281-48"/>
			<path class="st7" d="M0,165.5l281-48"/>
			<path class="st6" d="M0,168.5l281-48"/>
			<path class="st7" d="M0,171.5l281-48"/>
			<path class="st6" d="M0,174.5l281-48"/>
			<path class="st7" d="M0,177.5l281-48"/>
			<path class="st6" d="M0,180.6l281-48"/>
			<path class="st7" d="M0,183.6l281-48"/>
			<path class="st6" d="M0,186.6l281-48"/>
			<path class="st7" d="M0,189.6l281-48"/>
			<path class="st6" d="M0,192.6l281-48"/>
			<path class="st7" d="M0,195.6l281-48"/>
			<path class="st6" d="M0,198.6l281-48"/>
			<path class="st7" d="M0,201.6l281-48"/>
			<path class="st6" d="M0,204.7l281-48"/>
			<path class="st7" d="M0,207.7l281-48"/>
			<path class="st6" d="M0,210.7l281-48"/>
			<path class="st7" d="M0,213.7l281-48"/>
			<path class="st6" d="M0,216.7l281-48"/>
			<path class="st7" d="M0,219.7l281-48"/>
			<path class="st6" d="M0,222.7l281-48"/>
			<path class="st7" d="M0,225.7l281-48"/>
			<path class="st6" d="M0,228.8l281-48"/>
			<path class="st7" d="M0,231.8l281-48"/>
			<path class="st6" d="M0,234.8l281-48"/>
			<path class="st7" d="M0,237.8l281-48"/>
			<path class="st6" d="M0,240.8l281-48"/>
			<path class="st7" d="M0,243.8l281-48"/>
			<path class="st6" d="M0,246.8l281-48"/>
			<path class="st7" d="M0,249.8l281-48"/>
			<path class="st6" d="M0,252.9l281-48"/>
			<path class="st7" d="M0,255.9l281-48"/>
			<path class="st6" d="M0,258.9l281-48"/>
			<path class="st7" d="M0,261.9l281-48"/>
			<path class="st6" d="M0,264.9l281-48"/>
			<path class="st7" d="M0,267.9l281-48"/>
			<path class="st6" d="M0,270.9l281-48"/>
			<path class="st7" d="M0,273.9l281-48"/>
			<path class="st6" d="M0,277l281-48"/>
			<path class="st7" d="M0,280l281-48"/>
			<path class="st6" d="M0,283l281-48"/>
			<path class="st7" d="M0,286l281-48"/>
			<path class="st6" d="M0,289l281-48"/>
			<path class="st7" d="M0,292l281-48"/>
			<path class="st6" d="M0,295l281-48"/>
			<path class="st7" d="M0,298l281-48"/>
			<path class="st6" d="M0,301.1l281-48"/>
			<path class="st7" d="M0,304.1l281-48"/>
			<path class="st6" d="M0,307.1l281-48"/>
			<path class="st7" d="M0,310.1l281-48"/>
			<path class="st6" d="M0,313.1l281-48"/>
			<path class="st7" d="M0,316.1l281-48"/>
			<path class="st6" d="M0,319.1l281-48"/>
			<path class="st7" d="M0,322.1l281-48"/>
			<path class="st6" d="M0,325.2l281-48"/>
			<path class="st7" d="M0,328.2l281-48"/>
			<path class="st6" d="M0,331.2l281-48"/>
			<path class="st7" d="M0,334.2l281-48"/>
			<path class="st6" d="M0,337.2l281-48"/>
			<path class="st7" d="M0,340.2l281-48"/>
			<path class="st6" d="M0,343.2l281-48"/>
			<path class="st7" d="M0,346.2l281-48"/>
			<path class="st6" d="M0,349.3l281-48"/>
			<path class="st7" d="M0,352.3l281-48"/>
			<path class="st6" d="M0,355.3l281-48"/>
			<path class="st7" d="M0,358.3l281-48"/>
			<path class="st6" d="M0,361.3l281-48"/>
			<path class="st7" d="M0,364.3l281-48"/>
			<path class="st6" d="M0,367.3l281-48"/>
			<path class="st7" d="M0,370.3l281-48"/>
			<path class="st6" d="M0,373.4l281-48"/>
			<path class="st7" d="M0,376.4l281-48"/>
			<path class="st6" d="M0,379.4l281-48"/>
			<path class="st7" d="M0,382.4l281-48"/>
			<path class="st6" d="M0,385.4l281-48"/>
			<path class="st7" d="M0,388.4l281-48"/>
			<path class="st6" d="M0,391.4l281-48"/>
			<path class="st7" d="M0,394.4l281-48"/>
			<path class="st6" d="M0,397.5l281-48"/>
			<path class="st7" d="M0,400.5l281-48"/>
			<path class="st6" d="M0,403.5l281-48"/>
			<path class="st7" d="M0,406.5l281-48"/>
			<path class="st6" d="M0,409.5l281-48"/>
			<path class="st7" d="M0,412.5l281-48"/>
			<path class="st6" d="M0,415.5l281-48"/>
			<path class="st7" d="M0,418.5l281-48"/>
			<path class="st6" d="M0,421.6l281-48"/>
			<path class="st7" d="M0,424.6l281-48"/>
			<path class="st6" d="M0,427.6l281-48"/>
			<path class="st7" d="M0,430.6l281-48"/>
			<path class="st6" d="M0,433.6l281-48"/>
			<path class="st7" d="M0,436.6l281-48"/>
			<path class="st6" d="M0,439.6l281-48"/>
			<path class="st7" d="M0,442.6l281-48"/>
			<path class="st6" d="M0,445.7l281-48"/>
			<path class="st7" d="M0,448.7l281-48"/>
			<path class="st6" d="M0,451.7l281-48"/>
			<path class="st7" d="M0,454.7l281-48"/>
			<path class="st6" d="M0,457.7l281-48"/>
			<path class="st7" d="M0,460.7l281-48"/>
		</g>
	</g>
</g>
<text transform="matrix(0.9752 -0.1371 -3.489957e-02 0.9994 44.5425 249.8059)" class="st8 st9 st10">40+</text>
<text transform="matrix(0.9752 -0.1371 -3.489957e-02 0.9994 59.5798 285.9858)" class="st8 st9 st11">CITIES</text>
</svg>
