<?xml version="1.0" encoding="utf-8"?>
<!-- Generator: Adobe Illustrator 26.1.0, SVG Export Plug-In . SVG Version: 6.00 Build 0)  -->
<svg version="1.1" id="Layer_2_00000072993368426150002910000009021008883254703788_"
	 xmlns="http://www.w3.org/2000/svg" xmlns:xlink="http://www.w3.org/1999/xlink" x="0px" y="0px" viewBox="0 0 281.5 395.4"
	 style="enable-background:new 0 0 281.5 395.4;" xml:space="preserve">
<style type="text/css">
	.st0{fill:url(#SVGID_1_);}
	.st1{fill-opacity:0.5;}
	.st2{fill:none;stroke:#FFFFFF;stroke-width:2;stroke-linejoin:bevel;}
	.st3{fill:url(#SVGID_00000036240879507215558960000016687257810031633802_);stroke:#FFFFFF;stroke-width:2;stroke-linejoin:bevel;}
	.st4{fill:none;stroke:#FFFFFF;stroke-width:2;}
	.st5{clip-path:url(#SVGID_00000158012553375494882370000016947914989756062902_);}
	.st6{fill:none;stroke:#FFFFFF;stroke-width:3;stroke-linejoin:bevel;stroke-opacity:2.000000e-02;}
	.st7{fill:none;stroke:#FFFFFF;stroke-width:3;stroke-linejoin:bevel;stroke-opacity:0.15;}
	.st8{fill:#FFFFFF;}
	.st9{font-family:'Calibri-Bold';}
	.st10{font-size:23.7907px;}
	.st11{font-size:72.3625px;}
</style>
<linearGradient id="SVGID_1_" gradientUnits="userSpaceOnUse" x1="36.4993" y1="586.3658" x2="282.4893" y2="543.4457" gradientTransform="matrix(1 0 0 1 0 -369.04)">
	<stop  offset="0" style="stop-color:#884CFF"/>
	<stop  offset="1" style="stop-color:#FF2CFB"/>
</linearGradient>
<path class="st0" d="M246,7.6l8.3,7.4v337.6L9.6,394.4L1.3,387l9-329.7L246,7.6z"/>
<path class="st1" d="M246,7.6l8.3,7.4v337.6L9.6,394.4L1.3,387l9-329.7L246,7.6z"/>
<path class="st2" d="M246,7.6l8.3,7.4v337.6L9.6,394.4L1.3,387l9-329.7L246,7.6z"/>
<linearGradient id="SVGID_00000030466769475710487620000007494093658533960086_" gradientUnits="userSpaceOnUse" x1="28.2256" y1="582.5347" x2="274.2156" y2="539.6147" gradientTransform="matrix(1 0 0 1 0 -369.04)">
	<stop  offset="0" style="stop-color:#884CFF"/>
	<stop  offset="1" style="stop-color:#FF2CFB"/>
</linearGradient>
<path style="fill:url(#SVGID_00000030466769475710487620000007494093658533960086_);stroke:#FFFFFF;stroke-width:2;stroke-linejoin:bevel;" d="
	M1.2,386.3v-337l244-41.7v336.9L1.2,386.3z"/>
<path class="st4" d="M245.2,344.5l9,8"/>
<g>
	<defs>
		<rect id="SVGID_00000074426445050300394730000013478538212058544770_" x="0.2" y="1.5" width="245" height="382.4"/>
	</defs>
	<clipPath id="SVGID_00000084507443226484481020000011257650331298684322_">
		<use xlink:href="#SVGID_00000074426445050300394730000013478538212058544770_"  style="overflow:visible;"/>
	</clipPath>
	<g style="clip-path:url(#SVGID_00000084507443226484481020000011257650331298684322_);">
		<path class="st6" d="M0.2,49.5l281-48"/>
		<path class="st7" d="M0.2,52.5l281-48"/>
		<path class="st6" d="M0.2,55.5l281-48"/>
		<path class="st7" d="M0.2,58.5l281-48"/>
		<path class="st6" d="M0.2,61.5l281-48"/>
		<path class="st7" d="M0.2,64.6l281-48"/>
		<path class="st6" d="M0.2,67.6l281-48"/>
		<path class="st7" d="M0.2,70.6l281-48"/>
		<path class="st6" d="M0.2,73.6l281-48"/>
		<path class="st7" d="M0.2,76.6l281-48"/>
		<path class="st6" d="M0.2,79.6l281-48"/>
		<path class="st7" d="M0.2,82.6l281-48"/>
		<path class="st6" d="M0.2,85.7l281-48"/>
		<path class="st7" d="M0.2,88.7l281-48"/>
		<path class="st6" d="M0.2,91.7l281-48"/>
		<path class="st7" d="M0.2,94.7l281-48"/>
		<path class="st6" d="M0.2,97.7l281-48"/>
		<path class="st7" d="M0.2,100.7l281-48"/>
		<path class="st6" d="M0.2,103.7l281-48"/>
		<path class="st7" d="M0.2,106.7l281-48"/>
		<path class="st6" d="M0.2,109.8l281-48"/>
		<path class="st7" d="M0.2,112.8l281-48"/>
		<path class="st6" d="M0.2,115.8l281-48"/>
		<path class="st7" d="M0.2,118.8l281-48"/>
		<path class="st6" d="M0.2,121.8l281-48"/>
		<path class="st7" d="M0.2,124.8l281-48"/>
		<path class="st6" d="M0.2,127.8l281-48"/>
		<path class="st7" d="M0.2,130.8l281-48"/>
		<path class="st6" d="M0.2,133.9l281-48"/>
		<path class="st7" d="M0.2,136.9l281-48"/>
		<path class="st6" d="M0.2,139.9l281-48"/>
		<path class="st7" d="M0.2,142.9l281-48"/>
		<path class="st6" d="M0.2,145.9l281-48"/>
		<path class="st7" d="M0.2,148.9l281-48"/>
		<path class="st6" d="M0.2,151.9l281-48"/>
		<path class="st7" d="M0.2,154.9l281-48"/>
		<path class="st6" d="M0.2,158l281-48"/>
		<path class="st7" d="M0.2,161l281-48"/>
		<path class="st6" d="M0.2,164l281-48"/>
		<path class="st7" d="M0.2,167l281-48"/>
		<path class="st6" d="M0.2,170l281-48"/>
		<path class="st7" d="M0.2,173l281-48"/>
		<path class="st6" d="M0.2,176l281-48"/>
		<path class="st7" d="M0.2,179l281-48"/>
		<path class="st6" d="M0.2,182.1l281-48"/>
		<path class="st7" d="M0.2,185.1l281-48"/>
		<path class="st6" d="M0.2,188.1l281-48"/>
		<path class="st7" d="M0.2,191.1l281-48"/>
		<path class="st6" d="M0.2,194.1l281-48"/>
		<path class="st7" d="M0.2,197.1l281-48"/>
		<path class="st6" d="M0.2,200.1l281-48"/>
		<path class="st7" d="M0.2,203.1l281-48"/>
		<path class="st6" d="M0.2,206.1l281-48"/>
		<path class="st7" d="M0.2,209.1l281-48"/>
		<path class="st6" d="M0.2,212.2l281-48"/>
		<path class="st7" d="M0.2,215.2l281-48"/>
		<path class="st6" d="M0.2,218.2l281-48"/>
		<path class="st7" d="M0.2,221.2l281-48"/>
		<path class="st6" d="M0.2,224.2l281-48"/>
		<path class="st7" d="M0.2,227.2l281-48"/>
		<path class="st6" d="M0.2,230.2l281-48"/>
		<path class="st7" d="M0.2,233.2l281-48"/>
		<path class="st6" d="M0.2,236.3l281-48"/>
		<path class="st7" d="M0.2,239.3l281-48"/>
		<path class="st6" d="M0.2,242.3l281-48"/>
		<path class="st7" d="M0.2,245.3l281-48"/>
		<path class="st6" d="M0.2,248.3l281-48"/>
		<path class="st7" d="M0.2,251.3l281-48"/>
		<path class="st6" d="M0.2,254.4l281-48"/>
		<path class="st7" d="M0.2,257.4l281-48"/>
		<path class="st6" d="M0.2,260.4l281-48"/>
		<path class="st7" d="M0.2,263.4l281-48"/>
		<path class="st6" d="M0.2,266.4l281-48"/>
		<path class="st7" d="M0.2,269.4l281-48"/>
		<path class="st6" d="M0.2,272.4l281-48"/>
		<path class="st7" d="M0.2,275.4l281-48"/>
		<path class="st6" d="M0.2,278.5l281-48"/>
		<path class="st7" d="M0.2,281.5l281-48"/>
		<path class="st6" d="M0.2,284.5l281-48"/>
		<path class="st7" d="M0.2,287.5l281-48"/>
		<path class="st6" d="M0.2,290.5l281-48"/>
		<path class="st7" d="M0.2,293.5l281-48"/>
		<path class="st6" d="M0.2,296.5l281-48"/>
		<path class="st7" d="M0.2,299.5l281-48"/>
		<path class="st6" d="M0.2,302.5l281-48"/>
		<path class="st7" d="M0.2,305.5l281-48"/>
		<path class="st6" d="M0.2,308.6l281-48"/>
		<path class="st7" d="M0.2,311.6l281-48"/>
		<path class="st6" d="M0.2,314.6l281-48"/>
		<path class="st7" d="M0.2,317.6l281-48"/>
		<path class="st6" d="M0.2,320.6l281-48"/>
		<path class="st7" d="M0.2,323.6l281-48"/>
		<path class="st6" d="M0.2,326.6l281-48"/>
		<path class="st7" d="M0.2,329.6l281-48"/>
		<path class="st6" d="M0.2,332.7l281-48"/>
		<path class="st7" d="M0.2,335.7l281-48"/>
		<path class="st6" d="M0.2,338.7l281-48"/>
		<path class="st7" d="M0.2,341.7l281-48"/>
		<path class="st6" d="M0.2,344.7l281-48"/>
		<path class="st7" d="M0.2,347.7l281-48"/>
		<path class="st6" d="M0.2,350.8l281-48"/>
		<path class="st7" d="M0.2,353.8l281-48"/>
		<path class="st6" d="M0.2,356.8l281-48"/>
		<path class="st7" d="M0.2,359.8l281-48"/>
		<path class="st6" d="M0.2,362.8l281-48"/>
		<path class="st7" d="M0.2,365.8l281-48"/>
		<path class="st6" d="M0.2,368.8l281-48"/>
		<path class="st7" d="M0.2,371.8l281-48"/>
		<path class="st6" d="M0.2,374.9l281-48"/>
		<path class="st7" d="M0.2,377.9l281-48"/>
		<path class="st6" d="M0.2,380.9l281-48"/>
		<path class="st7" d="M0.2,383.9l281-48"/>
	</g>
</g>
<text transform="matrix(1.0195 -0.1399 -2.998651e-02 0.9996 22.9568 348.0745)" class="st8 st9 st10">HAC</text>
<text transform="matrix(1.0195 -0.1399 -2.998651e-02 0.9996 60.3804 342.938)" class="st8 st9 st10"> K</text>
<text transform="matrix(1.0195 -0.1399 -2.998651e-02 0.9996 71.3663 341.4306)" class="st8 st9 st10"> E</text>
<text transform="matrix(1.0195 -0.1399 -2.998651e-02 0.9996 83.575 339.7544)" class="st8 st9 st10"> RS</text>
<text transform="matrix(1.0195 -0.1399 -2.998651e-02 0.9996 16.8097 315.9902)" class="st8 st9 st11">660+</text>
</svg>
