<?xml version="1.0" encoding="utf-8"?>
<!-- Generator: Adobe Illustrator 26.1.0, SVG Export Plug-In . SVG Version: 6.00 Build 0)  -->
<svg version="1.1" id="Layer_1" xmlns="http://www.w3.org/2000/svg" xmlns:xlink="http://www.w3.org/1999/xlink" x="0px" y="0px"
	 viewBox="0 0 355 310" style="enable-background:new 0 0 355 310;" xml:space="preserve">
<style type="text/css">
	.st0{fill:url(#SVGID_1_);}
	.st1{fill-opacity:0.5;}
	.st2{fill:none;stroke:#FFFFFF;stroke-width:2;stroke-linejoin:bevel;}
	.st3{fill:url(#SVGID_00000022550491889733870940000018424860145027242880_);stroke:#FFFFFF;stroke-width:2;stroke-linejoin:bevel;}
	.st4{fill:none;stroke:#FFFFFF;stroke-width:2;}
	.st5{clip-path:url(#SVGID_00000166646577004608932510000013088247011881683623_);}
	.st6{fill:none;stroke:#FFFFFF;stroke-width:3;stroke-linejoin:bevel;stroke-opacity:0.15;}
	
		.st7{opacity:0.2;fill:none;stroke:#FFFFFF;stroke-width:3;stroke-linejoin:bevel;stroke-opacity:2.000000e-02;enable-background:new    ;}
	.st8{fill:#FFFFFF;}
	.st9{font-family:'Calibri-Bold';}
	.st10{font-size:72px;}
	.st11{font-size:24px;}
</style>
<linearGradient id="SVGID_1_" gradientUnits="userSpaceOnUse" x1="28.868" y1="130.3456" x2="374.824" y2="190.8018" gradientTransform="matrix(1 0 0 -1 0 312)">
	<stop  offset="0" style="stop-color:#F09343"/>
	<stop  offset="1" style="stop-color:#896BFF"/>
</linearGradient>
<path class="st0" d="M345.7,1.1l8.3,7.4V250L9.3,308.9L1,301.6l9-233.7L345.7,1.1z"/>
<path class="st1" d="M345.7,1.1l8.3,7.4V250L9.3,308.9L1,301.6l9-233.7L345.7,1.1z"/>
<g>
	<path class="st2" d="M345.7,1.1l8.3,7.4V250L9.3,308.9L1,301.6l9-233.7L345.7,1.1z"/>
	
		<linearGradient id="SVGID_00000143580184934878827770000003241070729157416636_" gradientUnits="userSpaceOnUse" x1="20.5555" y1="134.4115" x2="366.5115" y2="194.8676" gradientTransform="matrix(1 0 0 -1 0 312)">
		<stop  offset="0" style="stop-color:#F09343"/>
		<stop  offset="1" style="stop-color:#896BFF"/>
	</linearGradient>
	
		<path style="fill:url(#SVGID_00000143580184934878827770000003241070729157416636_);stroke:#FFFFFF;stroke-width:2;stroke-linejoin:bevel;" d="
		M1,300.8v-241L345,1.2V242L1,300.8z"/>
	<path class="st4" d="M345,242l9,8"/>
	<g>
		<defs>
			<rect id="SVGID_00000043452695745367337840000016329690179665260702_" y="3" width="346" height="296.3"/>
		</defs>
		<clipPath id="SVGID_00000152956966474270644230000012026415701241872831_">
			<use xlink:href="#SVGID_00000043452695745367337840000016329690179665260702_"  style="overflow:visible;"/>
		</clipPath>
		<g style="clip-path:url(#SVGID_00000152956966474270644230000012026415701241872831_);">
			<path class="st6" d="M0,65L346,6"/>
			<path class="st7" d="M0,62L346,3"/>
			<path class="st6" d="M0,71l346-59"/>
			<path class="st7" d="M0,68L346,9"/>
			<path class="st6" d="M0,77l346-59"/>
			<path class="st7" d="M0,74l346-59"/>
			<path class="st6" d="M0,83l346-59"/>
			<path class="st7" d="M0,80l346-59"/>
			<path class="st6" d="M0,89l346-59"/>
			<path class="st7" d="M0,86l346-59"/>
			<path class="st6" d="M0,95l346-59"/>
			<path class="st7" d="M0,92l346-59"/>
			<path class="st6" d="M0,101.1l346-59"/>
			<path class="st7" d="M0,98.1l346-59"/>
			<path class="st6" d="M0,107.1l346-59"/>
			<path class="st7" d="M0,104.1l346-59"/>
			<path class="st6" d="M0,113.1l346-59"/>
			<path class="st7" d="M0,110.1l346-59"/>
			<path class="st6" d="M0,119.1l346-59"/>
			<path class="st7" d="M0,116.1l346-59"/>
			<path class="st6" d="M0,125.1l346-59"/>
			<path class="st7" d="M0,122.1l346-59"/>
			<path class="st6" d="M0,131.1l346-59"/>
			<path class="st7" d="M0,128.1l346-59"/>
			<path class="st6" d="M0,137.1l346-59"/>
			<path class="st7" d="M0,134.1l346-59"/>
			<path class="st6" d="M0,143.1l346-59"/>
			<path class="st7" d="M0,140.1l346-59"/>
			<path class="st6" d="M0,149.1l346-59"/>
			<path class="st7" d="M0,146.1l346-59"/>
			<path class="st6" d="M0,155.1l346-59"/>
			<path class="st7" d="M0,152.1l346-59"/>
			<path class="st6" d="M0,161.1l346-59"/>
			<path class="st7" d="M0,158.1l346-59"/>
			<path class="st6" d="M0,167.1l346-59"/>
			<path class="st7" d="M0,164.1l346-59"/>
			<path class="st6" d="M0,173.1l346-59"/>
			<path class="st7" d="M0,170.1l346-59"/>
			<path class="st6" d="M0,179.1l346-59"/>
			<path class="st7" d="M0,176.1l346-59"/>
			<path class="st6" d="M0,185.2l346-59"/>
			<path class="st7" d="M0,182.2l346-59"/>
			<path class="st6" d="M0,191.2l346-59"/>
			<path class="st7" d="M0,188.2l346-59"/>
			<path class="st6" d="M0,197.2l346-59"/>
			<path class="st7" d="M0,194.2l346-59"/>
			<path class="st6" d="M0,203.2l346-59"/>
			<path class="st7" d="M0,200.2l346-59"/>
			<path class="st6" d="M0,209.2l346-59"/>
			<path class="st7" d="M0,206.2l346-59"/>
			<path class="st6" d="M0,215.2l346-59"/>
			<path class="st7" d="M0,212.2l346-59"/>
			<path class="st6" d="M0,221.2l346-59"/>
			<path class="st7" d="M0,218.2l346-59"/>
			<path class="st6" d="M0,227.2l346-59"/>
			<path class="st7" d="M0,224.2l346-59"/>
			<path class="st6" d="M0,233.2l346-59"/>
			<path class="st7" d="M0,230.2l346-59"/>
			<path class="st6" d="M0,239.2l346-59"/>
			<path class="st7" d="M0,236.2l346-59"/>
			<path class="st6" d="M0,245.2l346-59"/>
			<path class="st7" d="M0,242.2l346-59"/>
			<path class="st6" d="M0,251.2l346-59"/>
			<path class="st7" d="M0,248.2l346-59"/>
			<path class="st6" d="M0,257.2l346-59"/>
			<path class="st7" d="M0,254.2l346-59"/>
			<path class="st6" d="M0,263.3l346-59"/>
			<path class="st7" d="M0,260.3l346-59"/>
			<path class="st6" d="M0,269.3l346-59"/>
			<path class="st7" d="M0,266.3l346-59"/>
			<path class="st6" d="M0,275.3l346-59"/>
			<path class="st7" d="M0,272.3l346-59"/>
			<path class="st6" d="M0,281.3l346-59"/>
			<path class="st7" d="M0,278.3l346-59"/>
			<path class="st6" d="M0,287.3l346-59"/>
			<path class="st7" d="M0,284.3l346-59"/>
			<path class="st6" d="M0,293.3l346-59"/>
			<path class="st7" d="M0,290.3l346-59"/>
			<path class="st6" d="M0,299.3l346-59"/>
			<path class="st7" d="M0,296.3l346-59"/>
		</g>
	</g>
</g>
<text transform="matrix(0.9752 -0.1371 -3.489957e-02 0.9994 86.7206 166.7668)" class="st8 st9 st10">3000+</text>
<text transform="matrix(0.9752 -0.1371 -3.489957e-02 0.9994 91.3194 209.5925)" class="st8 st9 st11">REGISTRATIONS</text>
</svg>
