<?xml version="1.0" encoding="utf-8"?>
<!-- Generator: Adobe Illustrator 26.1.0, SVG Export Plug-In . SVG Version: 6.00 Build 0)  -->
<svg version="1.1" xmlns="http://www.w3.org/2000/svg" xmlns:xlink="http://www.w3.org/1999/xlink" x="0px" y="0px"
	 viewBox="0 0 267 314" style="enable-background:new 0 0 267 314;" xml:space="preserve">
<style type="text/css">
	.st0{fill:url(#SVGID_1_);}
	.st1{fill-opacity:0.5;}
	.st2{fill:none;stroke:#FFFFFF;stroke-width:2;stroke-linejoin:bevel;}
	.st3{fill:url(#SVGID_00000097470931121692804490000012248637986247625883_);stroke:#FFFFFF;stroke-width:2;stroke-linejoin:bevel;}
	.st4{fill:none;stroke:#FFFFFF;stroke-width:2;}
	.st5{clip-path:url(#SVGID_00000021798381383216398310000008516730625382232216_);}
	.st6{fill:none;stroke:#FFFFFF;stroke-width:3;stroke-linejoin:bevel;stroke-opacity:2.000000e-02;}
	.st7{fill:none;stroke:#FFFFFF;stroke-width:3;stroke-linejoin:bevel;stroke-opacity:0.15;}
	.st8{fill:none;}
	.st9{fill:#FFFFFF;}
	.st10{font-family:'Calibri-Bold';}
	.st11{font-size:72px;}
</style>
<g id="Layer_1">
	
		<linearGradient id="SVGID_1_" gradientUnits="userSpaceOnUse" x1="30.253" y1="140.7796" x2="288.302" y2="185.6338" gradientTransform="matrix(1 0 0 -1 0 316)">
		<stop  offset="0" style="stop-color:#1FA6FF"/>
		<stop  offset="1" style="stop-color:#896BFF"/>
	</linearGradient>
	<path class="st0" d="M257.7,1.1l8.3,7.4v260.4L9.3,312.9L1,305.6l9-252.5L257.7,1.1z"/>
	<path class="st1" d="M257.7,1.1l8.3,7.4v260.4L9.3,312.9L1,305.6l9-252.5L257.7,1.1z"/>
	<g>
		<path class="st2" d="M257.7,1.1l8.3,7.4v260.4L9.3,312.9L1,305.6l9-252.5L257.7,1.1z"/>
		
			<linearGradient id="SVGID_00000123403342806053794250000000238900426747801515_" gradientUnits="userSpaceOnUse" x1="22.0071" y1="144.4412" x2="280.0561" y2="189.2954" gradientTransform="matrix(1 0 0 -1 0 316)">
			<stop  offset="0" style="stop-color:#1FA6FF"/>
			<stop  offset="1" style="stop-color:#896BFF"/>
		</linearGradient>
		
			<path style="fill:url(#SVGID_00000123403342806053794250000000238900426747801515_);stroke:#FFFFFF;stroke-width:2;stroke-linejoin:bevel;" d="
			M1,304.8V45.1L257,1.2v259.7L1,304.8z"/>
		<path class="st4" d="M257,260.5l9,8.5"/>
		<g>
			<defs>
				<rect id="SVGID_00000065783976096413669030000012152258687842341530_" width="257" height="304.1"/>
			</defs>
			<clipPath id="SVGID_00000089557037899800893130000006445065107670897587_">
				<use xlink:href="#SVGID_00000065783976096413669030000012152258687842341530_"  style="overflow:visible;"/>
			</clipPath>
			<g style="clip-path:url(#SVGID_00000089557037899800893130000006445065107670897587_);">
				<path class="st6" d="M0,48L281,0"/>
				<path class="st7" d="M0,51L281,3"/>
				<path class="st6" d="M0,54L281,6"/>
				<path class="st7" d="M0,57L281,9"/>
				<path class="st6" d="M0,60.1l281-48"/>
				<path class="st7" d="M0,63.1l281-48"/>
				<path class="st6" d="M0,66.1l281-48"/>
				<path class="st7" d="M0,69.1l281-48"/>
				<path class="st6" d="M0,72.1l281-48"/>
				<path class="st7" d="M0,75.1l281-48"/>
				<path class="st6" d="M0,78.1l281-48"/>
				<path class="st7" d="M0,81.1l281-48"/>
				<path class="st6" d="M0,84.2l281-48"/>
				<path class="st7" d="M0,87.2l281-48"/>
				<path class="st6" d="M0,90.2l281-48"/>
				<path class="st7" d="M0,93.2l281-48"/>
				<path class="st6" d="M0,96.2l281-48"/>
				<path class="st7" d="M0,99.2l281-48"/>
				<path class="st6" d="M0,102.2l281-48"/>
				<path class="st7" d="M0,105.2l281-48"/>
				<path class="st6" d="M0,108.3l281-48"/>
				<path class="st7" d="M0,111.3l281-48"/>
				<path class="st6" d="M0,114.3l281-48"/>
				<path class="st7" d="M0,117.3l281-48"/>
				<path class="st6" d="M0,120.3l281-48"/>
				<path class="st7" d="M0,123.3l281-48"/>
				<path class="st6" d="M0,126.3l281-48"/>
				<path id="SVGID_x5F_00000023971320765246838000000003008982408867133327_x5F_" class="st8" d="M11.8,135.2l281-48"/>
				<text>				<textPath  xlink:href="#SVGID_x5F_00000023971320765246838000000003008982408867133327_x5F_" startOffset="47.126%">
				</textPath>
</text>
				<path class="st6" d="M0,132.4l281-48"/>
				<path class="st7" d="M0,135.4l281-48"/>
				<path class="st6" d="M0,138.4l281-48"/>
				<path class="st7" d="M0,141.4l281-48"/>
				<path class="st6" d="M0,144.4l281-48"/>
				<path class="st7" d="M0,147.4l281-48"/>
				<path class="st6" d="M0,150.4l281-48"/>
				<path class="st7" d="M0,153.4l281-48"/>
				<path class="st6" d="M0,156.5l281-48"/>
				<path class="st7" d="M0,159.5l281-48"/>
				<path class="st6" d="M0,162.5l281-48"/>
				<path class="st7" d="M0,165.5l281-48"/>
				<path class="st6" d="M0,168.5l281-48"/>
				<path class="st7" d="M0,171.5l281-48"/>
				<path class="st6" d="M0,174.5l281-48"/>
				<path class="st7" d="M0,177.5l281-48"/>
				<path class="st6" d="M0,180.6l281-48"/>
				<path class="st7" d="M0,183.6l281-48"/>
				<path class="st6" d="M0,186.6l281-48"/>
				<path class="st7" d="M0,189.6l281-48"/>
				<path class="st6" d="M0,192.6l281-48"/>
				<path class="st7" d="M0,195.6l281-48"/>
				<path class="st6" d="M0,198.6l281-48"/>
				<path class="st7" d="M0,201.6l281-48"/>
				<path class="st6" d="M0,204.7l281-48"/>
				<path class="st7" d="M0,207.7l281-48"/>
				<path class="st6" d="M0,210.7l281-48"/>
				<path class="st7" d="M0,213.7l281-48"/>
				<path class="st6" d="M0,216.7l281-48"/>
				<path class="st7" d="M0,219.7l281-48"/>
				<path class="st6" d="M0,222.7l281-48"/>
				<path class="st7" d="M0,225.7l281-48"/>
				<path class="st6" d="M0,228.8l281-48"/>
				<path class="st7" d="M0,231.8l281-48"/>
				<path class="st6" d="M0,234.8l281-48"/>
				<path class="st7" d="M0,237.8l281-48"/>
				<path class="st6" d="M0,240.8l281-48"/>
				<path class="st7" d="M0,243.8l281-48"/>
				<path class="st6" d="M0,246.8l281-48"/>
				<path class="st7" d="M0,249.8l281-48"/>
				<path class="st6" d="M0,252.9l281-48"/>
				<path class="st7" d="M0,255.9l281-48"/>
				<path class="st6" d="M0,258.9l281-48"/>
				<path class="st7" d="M0,261.9l281-48"/>
				<path class="st6" d="M0,264.9l281-48"/>
				<path class="st7" d="M0,267.9l281-48"/>
				<path class="st6" d="M0,270.9l281-48"/>
				<path class="st7" d="M0,273.9l281-48"/>
				<path class="st6" d="M0,277l281-48"/>
				<path class="st7" d="M0,280l281-48"/>
				<path class="st6" d="M0,283l281-48"/>
				<path class="st7" d="M0,286l281-48"/>
				<path class="st6" d="M0,289l281-48"/>
				<path class="st7" d="M0,292l281-48"/>
				<path class="st6" d="M0,295l281-48"/>
				<path class="st7" d="M0,298l281-48"/>
				<path class="st6" d="M0,301.1l281-48"/>
				<path class="st7" d="M0,304.1l281-48"/>
			</g>
		</g>
	</g>
	<path id="SVGID_x5F_00000147931598037102239400000003017946545218232460_x5F_" class="st8" d="M139.3,116.7l289.5-48"/>
	<text>	<textPath  xlink:href="#SVGID_x5F_00000147931598037102239400000003017946545218232460_x5F_" startOffset="0.7324%">
<tspan  class="st9 st10" style="font-size:24.3702px;">MENTORS</tspan>	</textPath>
</text>
</g>
<g id="Layer_2">
	<text transform="matrix(0.9752 -0.1371 -3.489957e-02 0.9994 137.2498 84.7719)" class="st9 st10 st11">30+</text>
</g>
</svg>
