<?xml version="1.0" encoding="utf-8"?>
<!-- Generator: Adobe Illustrator 26.1.0, SVG Export Plug-In . SVG Version: 6.00 Build 0)  -->
<svg version="1.1" id="Layer_1" xmlns="http://www.w3.org/2000/svg" xmlns:xlink="http://www.w3.org/1999/xlink" x="0px" y="0px"
	 viewBox="0 0 349 300" style="enable-background:new 0 0 349 300;" xml:space="preserve">
<style type="text/css">
	.st0{fill:url(#SVGID_1_);}
	.st1{fill-opacity:0.5;}
	.st2{fill:none;stroke:#FFFFFF;stroke-width:2;stroke-linejoin:bevel;}
	.st3{fill:url(#SVGID_00000085966056870939596490000000330880574668026780_);stroke:#FFFFFF;stroke-width:2;stroke-linejoin:bevel;}
	.st4{fill:none;stroke:#FFFFFF;stroke-width:2;}
	.st5{clip-path:url(#SVGID_00000181060272256114367230000015278788437125108138_);}
	.st6{fill:none;stroke:#FFFFFF;stroke-width:3;stroke-linejoin:bevel;stroke-opacity:0.15;}
	.st7{fill:none;stroke:#FFFFFF;stroke-width:3;stroke-linejoin:bevel;stroke-opacity:2.000000e-02;}
	.st8{fill:#FFFFFF;}
	.st9{font-family:'Calibri-Bold';}
	.st10{font-size:64.0952px;}
	.st11{font-size:21.3651px;}
</style>
<linearGradient id="SVGID_1_" gradientUnits="userSpaceOnUse" x1="-25.4682" y1="229.1747" x2="314.469" y2="97.6517" gradientTransform="matrix(1 0 0 -1 0 302)">
	<stop  offset="0" style="stop-color:#F09343"/>
	<stop  offset="1" style="stop-color:#FF2CFB"/>
</linearGradient>
<path class="st0" d="M9.2,1.1L1,7.5v160.6l338.8,130.7l8.1-6.3L339,138.8L9.2,1.1z"/>
<path class="st1" d="M9.2,1.1L1,7.5v160.6l338.8,130.7l8.1-6.3L339,138.8L9.2,1.1z"/>
<g>
	<path class="st2" d="M9.2,1.1L1,7.5v160.6l338.8,130.7l8.1-6.3L339,138.8L9.2,1.1z"/>
	
		<linearGradient id="SVGID_00000127737303949210457670000017081804359132702109_" gradientUnits="userSpaceOnUse" x1="-18.1495" y1="231.8289" x2="321.7875" y2="100.3059" gradientTransform="matrix(1 0 0 -1 0 302)">
		<stop  offset="0" style="stop-color:#F09343"/>
		<stop  offset="1" style="stop-color:#FF2CFB"/>
	</linearGradient>
	
		<path style="fill:url(#SVGID_00000127737303949210457670000017081804359132702109_);stroke:#FFFFFF;stroke-width:2;stroke-linejoin:bevel;" d="
		M348,291.5V131.8L10,1.5v159.7L348,291.5z"/>
	<path class="st4" d="M1,168l9-7"/>
	<g>
		<defs>
			<rect id="SVGID_00000054980573397814376530000012784425875098595757_" x="10" y="2" width="339" height="291.5"/>
		</defs>
		<clipPath id="SVGID_00000013152904191921946340000000681028307778371480_">
			<use xlink:href="#SVGID_00000054980573397814376530000012784425875098595757_"  style="overflow:visible;"/>
		</clipPath>
		<g style="clip-path:url(#SVGID_00000013152904191921946340000000681028307778371480_);">
			<path class="st6" d="M359,139.8L10,5.2"/>
			<path class="st7" d="M359,136.6L10,2"/>
			<path class="st6" d="M359,146.2L10,11.6"/>
			<path class="st7" d="M359,143L10,8.4"/>
			<path class="st6" d="M359,152.6L10,18"/>
			<path class="st7" d="M359,149.4L10,14.8"/>
			<path class="st6" d="M359,159L10,24.4"/>
			<path class="st7" d="M359,155.8L10,21.2"/>
			<path class="st6" d="M359,165.4L10,30.8"/>
			<path class="st7" d="M359,162.2L10,27.6"/>
			<path class="st6" d="M359,171.8L10,37.2"/>
			<path class="st7" d="M359,168.6L10,34"/>
			<path class="st6" d="M359,178.2L10,43.6"/>
			<path class="st7" d="M359,175L10,40.4"/>
			<path class="st6" d="M359,184.6L10,50"/>
			<path class="st7" d="M359,181.4L10,46.8"/>
			<path class="st6" d="M359,191L10,56.4"/>
			<path class="st7" d="M359,187.8L10,53.2"/>
			<path class="st6" d="M359,197.4L10,62.8"/>
			<path class="st7" d="M359,194.2L10,59.6"/>
			<path class="st6" d="M359,203.8L10,69.2"/>
			<path class="st7" d="M359,200.6L10,66"/>
			<path class="st6" d="M359,210.3L10,75.6"/>
			<path class="st7" d="M359,207.1L10,72.4"/>
			<path class="st6" d="M359,216.7L10,82.1"/>
			<path class="st7" d="M359,213.5L10,78.9"/>
			<path class="st6" d="M359,223.1L10,88.5"/>
			<path class="st7" d="M359,219.9L10,85.3"/>
			<path class="st6" d="M359,229.5L10,94.9"/>
			<path class="st7" d="M359,226.3L10,91.7"/>
			<path class="st6" d="M359,235.9L10,101.3"/>
			<path class="st7" d="M359,232.7L10,98.1"/>
			<path class="st6" d="M359,242.3L10,107.7"/>
			<path class="st7" d="M359,239.1L10,104.5"/>
			<path class="st6" d="M359,248.7L10,114.1"/>
			<path class="st7" d="M359,245.5L10,110.9"/>
			<path class="st6" d="M359,255.1L10,120.5"/>
			<path class="st7" d="M359,251.9L10,117.3"/>
			<path class="st6" d="M359,261.5L10,126.9"/>
			<path class="st7" d="M359,258.3L10,123.7"/>
			<path class="st6" d="M359,267.9L10,133.3"/>
			<path class="st7" d="M359,264.7L10,130.1"/>
			<path class="st6" d="M359,274.3L10,139.7"/>
			<path class="st7" d="M359,271.1L10,136.5"/>
			<path class="st6" d="M359,280.7L10,146.1"/>
			<path class="st7" d="M359,277.5L10,142.9"/>
			<path class="st6" d="M359,287.1L10,152.5"/>
			<path class="st7" d="M359,283.9L10,149.3"/>
			<path class="st6" d="M359,293.5L10,158.9"/>
			<path class="st7" d="M359,290.3L10,155.7"/>
		</g>
	</g>
</g>
<text transform="matrix(1.1759 0.4702 -0.1201 0.9928 31.9566 78.5489)" class="st8 st9 st10">170+</text>
<text transform="matrix(1.1759 0.4702 -0.1201 0.9928 31.9563 122.366)" class="st8 st9 st11">PROJECTS</text>
</svg>
