<?xml version="1.0" encoding="utf-8"?>
<!-- Generator: Adobe Illustrator 26.1.0, SVG Export Plug-In . SVG Version: 6.00 Build 0)  -->
<svg version="1.1" id="Layer_1" xmlns="http://www.w3.org/2000/svg" xmlns:xlink="http://www.w3.org/1999/xlink" x="0px" y="0px"
	 viewBox="0 0 227 493" style="enable-background:new 0 0 227 493;" xml:space="preserve">
<style type="text/css">
	.st0{fill:url(#SVGID_1_);}
	.st1{fill-opacity:0.5;}
	.st2{fill:none;stroke:#FFFFFF;stroke-width:2;stroke-linejoin:bevel;}
	.st3{fill:url(#SVGID_00000003827543713919289890000005206233130206942386_);stroke:#FFFFFF;stroke-width:2;stroke-linejoin:bevel;}
	.st4{fill:none;stroke:#FFFFFF;stroke-width:2;}
	.st5{clip-path:url(#SVGID_00000049922201912719510510000006114004420414964127_);}
	.st6{fill:none;stroke:#FFFFFF;stroke-width:3;stroke-linejoin:bevel;stroke-opacity:0.15;}
	.st7{fill:none;stroke:#FFFFFF;stroke-width:3;stroke-linejoin:bevel;stroke-opacity:2.000000e-02;}
	.st8{fill:#FFFFFF;}
	.st9{font-family:'Calibri-Bold';}
	.st10{font-size:64.0952px;}
	.st11{font-size:21.3651px;}
</style>
<linearGradient id="SVGID_1_" gradientUnits="userSpaceOnUse" x1="0.2643" y1="400.3824" x2="216.243" y2="125.6293" gradientTransform="matrix(1 0 0 -1 0 494)">
	<stop  offset="0" style="stop-color:#009B9E"/>
	<stop  offset="1" style="stop-color:#F09343"/>
</linearGradient>
<path class="st0" d="M9.2,1.2L1,8.4v362.8l216.8,83.6l8.2-7.3l-9-354.9L9.2,1.2z"/>
<path class="st1" d="M9.2,1.2L1,8.4v362.8l216.8,83.6l8.2-7.3l-9-354.9L9.2,1.2z"/>
<g>
	<path class="st2" d="M9.2,1.2L1,8.4v362.8l216.8,83.6l8.2-7.3l-9-354.9L9.2,1.2z"/>
	
		<linearGradient id="SVGID_00000182517451829275964560000003168738764300661941_" gradientUnits="userSpaceOnUse" x1="9.2528" y1="408.3733" x2="225.2313" y2="133.621" gradientTransform="matrix(1 0 0 -1 0 494)">
		<stop  offset="0" style="stop-color:#009B9E"/>
		<stop  offset="1" style="stop-color:#F09343"/>
	</linearGradient>
	
		<path style="fill:url(#SVGID_00000182517451829275964560000003168738764300661941_);stroke:#FFFFFF;stroke-width:2;stroke-linejoin:bevel;" d="
		M226,446.5V84.7L10,1.5v361.8L226,446.5z"/>
	<path class="st4" d="M1,371l9-8"/>
	<g>
		<defs>
			<rect id="SVGID_00000017492960753943987620000016125589368142506885_" x="10" y="2" width="217" height="490"/>
		</defs>
		<clipPath id="SVGID_00000023255519499533484610000000925355249680920967_">
			<use xlink:href="#SVGID_00000017492960753943987620000016125589368142506885_"  style="overflow:visible;"/>
		</clipPath>
		<g style="clip-path:url(#SVGID_00000023255519499533484610000000925355249680920967_);">
			<path class="st6" d="M359,139.8L10,5.2"/>
			<path class="st7" d="M359,136.6L10,2"/>
			<path class="st6" d="M359,146.2L10,11.6"/>
			<path class="st7" d="M359,143L10,8.4"/>
			<path class="st6" d="M359,152.6L10,18"/>
			<path class="st7" d="M359,149.4L10,14.8"/>
			<path class="st6" d="M359,159L10,24.4"/>
			<path class="st7" d="M359,155.8L10,21.2"/>
			<path class="st6" d="M359,165.4L10,30.8"/>
			<path class="st7" d="M359,162.2L10,27.6"/>
			<path class="st6" d="M359,171.8L10,37.2"/>
			<path class="st7" d="M359,168.6L10,34"/>
			<path class="st6" d="M359,178.2L10,43.6"/>
			<path class="st7" d="M359,175L10,40.4"/>
			<path class="st6" d="M359,184.6L10,50"/>
			<path class="st7" d="M359,181.4L10,46.8"/>
			<path class="st6" d="M359,191L10,56.4"/>
			<path class="st7" d="M359,187.8L10,53.2"/>
			<path class="st6" d="M359,197.4L10,62.8"/>
			<path class="st7" d="M359,194.2L10,59.6"/>
			<path class="st6" d="M359,203.8L10,69.2"/>
			<path class="st7" d="M359,200.6L10,66"/>
			<path class="st6" d="M359,210.3L10,75.6"/>
			<path class="st7" d="M359,207.1L10,72.4"/>
			<path class="st6" d="M359,216.7L10,82.1"/>
			<path class="st7" d="M359,213.5L10,78.9"/>
			<path class="st6" d="M359,223.1L10,88.5"/>
			<path class="st7" d="M359,219.9L10,85.3"/>
			<path class="st6" d="M359,229.5L10,94.9"/>
			<path class="st7" d="M359,226.3L10,91.7"/>
			<path class="st6" d="M359,235.9L10,101.3"/>
			<path class="st7" d="M359,232.7L10,98.1"/>
			<path class="st6" d="M359,242.3L10,107.7"/>
			<path class="st7" d="M359,239.1L10,104.5"/>
			<path class="st6" d="M359,248.7L10,114.1"/>
			<path class="st7" d="M359,245.5L10,110.9"/>
			<path class="st6" d="M359,255.1L10,120.5"/>
			<path class="st7" d="M359,251.9L10,117.3"/>
			<path class="st6" d="M359,261.5L10,126.9"/>
			<path class="st7" d="M359,258.3L10,123.7"/>
			<path class="st6" d="M359,267.9L10,133.3"/>
			<path class="st7" d="M359,264.7L10,130.1"/>
			<path class="st6" d="M359,274.3L10,139.7"/>
			<path class="st7" d="M359,271.1L10,136.5"/>
			<path class="st6" d="M359,280.7L10,146.1"/>
			<path class="st7" d="M359,277.5L10,142.9"/>
			<path class="st6" d="M359,287.1L10,152.5"/>
			<path class="st7" d="M359,283.9L10,149.3"/>
			<path class="st6" d="M359,293.5L10,158.9"/>
			<path class="st7" d="M359,290.3L10,155.7"/>
			<path class="st6" d="M359,299.9L10,165.3"/>
			<path class="st7" d="M359,296.7L10,162.1"/>
			<path class="st6" d="M359,306.3L10,171.7"/>
			<path class="st7" d="M359,303.1L10,168.5"/>
			<path class="st6" d="M359,312.7L10,178.1"/>
			<path class="st7" d="M359,309.5L10,174.9"/>
			<path class="st6" d="M359,319.1L10,184.5"/>
			<path class="st7" d="M359,315.9L10,181.3"/>
			<path class="st6" d="M359,325.5L10,190.9"/>
			<path class="st7" d="M359,322.3L10,187.7"/>
			<path class="st6" d="M359,331.9L10,197.3"/>
			<path class="st7" d="M359,328.7L10,194.1"/>
			<path class="st6" d="M359,338.3L10,203.7"/>
			<path class="st7" d="M359,335.1L10,200.5"/>
			<path class="st6" d="M359,344.7L10,210.1"/>
			<path class="st7" d="M359,341.5L10,206.9"/>
			<path class="st6" d="M359,351.1L10,216.5"/>
			<path class="st7" d="M359,347.9L10,213.3"/>
			<path class="st6" d="M359,357.6L10,222.9"/>
			<path class="st7" d="M359,354.4L10,219.7"/>
			<path class="st6" d="M359,364L10,229.4"/>
			<path class="st7" d="M359,360.8L10,226.2"/>
			<path class="st6" d="M359,370.4L10,235.8"/>
			<path class="st7" d="M359,367.2L10,232.6"/>
			<path class="st6" d="M359,376.8L10,242.2"/>
			<path class="st7" d="M359,373.6L10,239"/>
			<path class="st6" d="M359,383.2L10,248.6"/>
			<path class="st7" d="M359,380L10,245.4"/>
			<path class="st6" d="M359,389.6L10,255"/>
			<path class="st7" d="M359,386.4L10,251.8"/>
			<path class="st6" d="M359,396L10,261.4"/>
			<path class="st7" d="M359,392.8L10,258.2"/>
			<path class="st6" d="M359,402.4L10,267.8"/>
			<path class="st7" d="M359,399.2L10,264.6"/>
			<path class="st6" d="M359,408.8L10,274.2"/>
			<path class="st7" d="M359,405.6L10,271"/>
			<path class="st6" d="M359,415.2L10,280.6"/>
			<path class="st7" d="M359,412L10,277.4"/>
			<path class="st6" d="M359,421.6L10,287"/>
			<path class="st7" d="M359,418.4L10,283.8"/>
			<path class="st6" d="M359,428L10,293.4"/>
			<path class="st7" d="M359,424.8L10,290.2"/>
			<path class="st6" d="M359,434.4L10,299.8"/>
			<path class="st7" d="M359,431.2L10,296.6"/>
			<path class="st6" d="M359,440.8L10,306.2"/>
			<path class="st7" d="M359,437.6L10,303"/>
			<path class="st6" d="M359,447.2L10,312.6"/>
			<path class="st7" d="M359,444L10,309.4"/>
			<path class="st6" d="M359,453.6L10,319"/>
			<path class="st7" d="M359,450.4L10,315.8"/>
			<path class="st6" d="M359,460L10,325.4"/>
			<path class="st7" d="M359,456.8L10,322.2"/>
			<path class="st6" d="M359,466.4L10,331.8"/>
			<path class="st7" d="M359,463.2L10,328.6"/>
			<path class="st6" d="M359,472.8L10,338.2"/>
			<path class="st7" d="M359,469.6L10,335"/>
			<path class="st6" d="M359,479.2L10,344.6"/>
			<path class="st7" d="M359,476L10,341.4"/>
			<path class="st6" d="M359,485.6L10,351"/>
			<path class="st7" d="M359,482.4L10,347.8"/>
			<path class="st6" d="M359,492L10,357.4"/>
			<path class="st7" d="M359,488.8L10,354.2"/>
		</g>
	</g>
</g>
<text transform="matrix(1.1759 0.4702 -0.1201 0.9928 26.7157 294.7814)" class="st8 st9 st10">60+</text>
<text transform="matrix(1.1759 0.4702 -0.1201 0.9928 30.8428 338.5985)" class="st8 st9 st11">UNIVERSITIES</text>
</svg>
