<?xml version="1.0" encoding="utf-8"?>
<!-- Generator: Adobe Illustrator 26.1.0, SVG Export Plug-In . SVG Version: 6.00 Build 0)  -->
<svg version="1.1" id="Layer_1" xmlns="http://www.w3.org/2000/svg" xmlns:xlink="http://www.w3.org/1999/xlink" x="0px" y="0px"
	 viewBox="0 0 255 251" style="enable-background:new 0 0 255 251;" xml:space="preserve">
<style type="text/css">
	.st0{fill:url(#SVGID_1_);}
	.st1{fill-opacity:0.5;}
	.st2{fill:none;stroke:#FFFFFF;stroke-width:2;stroke-linejoin:bevel;}
	.st3{fill:url(#SVGID_00000142174966758811288550000009283180840482828691_);stroke:#FFFFFF;stroke-width:2;stroke-linejoin:bevel;}
	.st4{fill:none;stroke:#FFFFFF;stroke-width:2;}
	.st5{clip-path:url(#SVGID_00000096057350514161347990000001819438878736042887_);}
	.st6{fill:none;stroke:#FFFFFF;stroke-width:3;stroke-linejoin:bevel;stroke-opacity:2.000000e-02;}
	.st7{fill:none;stroke:#FFFFFF;stroke-width:3;stroke-linejoin:bevel;stroke-opacity:0.15;}
	.st8{fill:#FFFFFF;}
	.st9{font-family:'Calibri-Bold';}
	.st10{font-size:72px;}
	.st11{font-size:24px;}
</style>
<linearGradient id="SVGID_1_" gradientUnits="userSpaceOnUse" x1="25.1975" y1="108.302" x2="271.2065" y2="151.1727" gradientTransform="matrix(1 0 0 -1 0 252)">
	<stop  offset="0" style="stop-color:#1FA6FF"/>
	<stop  offset="1" style="stop-color:#009B9E"/>
</linearGradient>
<path class="st0" d="M245.7,1.1l8.3,7.4V208L9.3,249.9L1,242.6L10,50.9L245.7,1.1z"/>
<path class="st1" d="M245.7,1.1l8.3,7.4V208L9.3,249.9L1,242.6L10,50.9L245.7,1.1z"/>
<g>
	<path class="st2" d="M245.7,1.1l8.3,7.4V208L9.3,249.9L1,242.6L10,50.9L245.7,1.1z"/>
	
		<linearGradient id="SVGID_00000062910670624759085900000003151621836799024556_" gradientUnits="userSpaceOnUse" x1="16.9379" y1="112.0537" x2="262.9469" y2="154.9244" gradientTransform="matrix(1 0 0 -1 0 252)">
		<stop  offset="0" style="stop-color:#1FA6FF"/>
		<stop  offset="1" style="stop-color:#009B9E"/>
	</linearGradient>
	
		<path style="fill:url(#SVGID_00000062910670624759085900000003151621836799024556_);stroke:#FFFFFF;stroke-width:2;stroke-linejoin:bevel;" d="
		M1,241.8V42.9L245,1.2V200L1,241.8z"/>
	<path class="st4" d="M245,200l9,8"/>
	<g>
		<defs>
			<rect id="SVGID_00000026160163271813868890000001396110564706964359_" width="245" height="237.8"/>
		</defs>
		<clipPath id="SVGID_00000086681254702808424330000006553557590243396748_">
			<use xlink:href="#SVGID_00000026160163271813868890000001396110564706964359_"  style="overflow:visible;"/>
		</clipPath>
		<g style="clip-path:url(#SVGID_00000086681254702808424330000006553557590243396748_);">
			<path class="st6" d="M0,48L281,0"/>
			<path class="st7" d="M0,51L281,3"/>
			<path class="st6" d="M0,54L281,6"/>
			<path class="st7" d="M0,57L281,9"/>
			<path class="st6" d="M0,60.1l281-48"/>
			<path class="st7" d="M0,63.1l281-48"/>
			<path class="st6" d="M0,66.1l281-48"/>
			<path class="st7" d="M0,69.1l281-48"/>
			<path class="st6" d="M0,72.1l281-48"/>
			<path class="st7" d="M0,75.1l281-48"/>
			<path class="st6" d="M0,78.1l281-48"/>
			<path class="st7" d="M0,81.1l281-48"/>
			<path class="st6" d="M0,84.2l281-48"/>
			<path class="st7" d="M0,87.2l281-48"/>
			<path class="st6" d="M0,90.2l281-48"/>
			<path class="st7" d="M0,93.2l281-48"/>
			<path class="st6" d="M0,96.2l281-48"/>
			<path class="st7" d="M0,99.2l281-48"/>
			<path class="st6" d="M0,102.2l281-48"/>
			<path class="st7" d="M0,105.2l281-48"/>
			<path class="st6" d="M0,108.3l281-48"/>
			<path class="st7" d="M0,111.3l281-48"/>
			<path class="st6" d="M0,114.3l281-48"/>
			<path class="st7" d="M0,117.3l281-48"/>
			<path class="st6" d="M0,120.3l281-48"/>
			<path class="st7" d="M0,123.3l281-48"/>
			<path class="st6" d="M0,126.3l281-48"/>
			<path class="st7" d="M0,129.3l281-48"/>
			<path class="st6" d="M0,132.4l281-48"/>
			<path class="st7" d="M0,135.4l281-48"/>
			<path class="st6" d="M0,138.4l281-48"/>
			<path class="st7" d="M0,141.4l281-48"/>
			<path class="st6" d="M0,144.4l281-48"/>
			<path class="st7" d="M0,147.4l281-48"/>
			<path class="st6" d="M0,150.4l281-48"/>
			<path class="st7" d="M0,153.4l281-48"/>
			<path class="st6" d="M0,156.5l281-48"/>
			<path class="st7" d="M0,159.5l281-48"/>
			<path class="st6" d="M0,162.5l281-48"/>
			<path class="st7" d="M0,165.5l281-48"/>
			<path class="st6" d="M0,168.5l281-48"/>
			<path class="st7" d="M0,171.5l281-48"/>
			<path class="st6" d="M0,174.5l281-48"/>
			<path class="st7" d="M0,177.5l281-48"/>
			<path class="st6" d="M0,180.6l281-48"/>
			<path class="st7" d="M0,183.6l281-48"/>
			<path class="st6" d="M0,186.6l281-48"/>
			<path class="st7" d="M0,189.6l281-48"/>
			<path class="st6" d="M0,192.6l281-48"/>
			<path class="st7" d="M0,195.6l281-48"/>
			<path class="st6" d="M0,198.6l281-48"/>
			<path class="st7" d="M0,201.6l281-48"/>
			<path class="st6" d="M0,204.7l281-48"/>
			<path class="st7" d="M0,207.7l281-48"/>
			<path class="st6" d="M0,210.7l281-48"/>
			<path class="st7" d="M0,213.7l281-48"/>
			<path class="st6" d="M0,216.7l281-48"/>
			<path class="st7" d="M0,219.7l281-48"/>
			<path class="st6" d="M0,222.7l281-48"/>
			<path class="st7" d="M0,225.7l281-48"/>
			<path class="st6" d="M0,228.8l281-48"/>
			<path class="st7" d="M0,231.8l281-48"/>
			<path class="st6" d="M0,234.8l281-48"/>
			<path class="st7" d="M0,237.8l281-48"/>
		</g>
	</g>
</g>
<text transform="matrix(0.9752 -0.1371 -3.489957e-02 0.9994 79.8376 131.8857)" class="st8 st9 st10">10+</text>
<text transform="matrix(0.9752 -0.1371 -3.489957e-02 0.9994 64.6074 168.0648)" class="st8 st9 st11">WORKSHOPS</text>
</svg>
